<svg width="24" height="20" viewBox="0 0 24 20" fill="none" xmlns="http://www.w3.org/2000/svg">
<path d="M16 14.2109V1.21094H1V14.2109H16ZM16 14.2109H23V9.21094L20 6.21094H16V14.2109ZM8 16.7109C8 18.0916 6.88071 19.2109 5.5 19.2109C4.11929 19.2109 3 18.0916 3 16.7109C3 15.3302 4.11929 14.2109 5.5 14.2109C6.88071 14.2109 8 15.3302 8 16.7109ZM21 16.7109C21 18.0916 19.8807 19.2109 18.5 19.2109C17.1193 19.2109 16 18.0916 16 16.7109C16 15.3302 17.1193 14.2109 18.5 14.2109C19.8807 14.2109 21 15.3302 21 16.7109Z" stroke="#999999" stroke-linecap="round" stroke-linejoin="round"/>
</svg>
